# xmcd
#
# Track frame offsets:
#	150
#	15600
#	29325
#	41550
#	55407
#	69132
#	81912
#	93985
#	105835
#	117828
#	134103
#	147303
#	161853
#	176553
#	190090
#	204190
#	218665
#	232196
#	242405
#	256130
#	268016
#	280541
#	293703
#	307203
#
# Disc length: 4281 seconds
# Revision: 0
# Processed by: cddbd v1.5.2PL0 Copyright (c) Steve Scherf et al.
# Submitted via: dBpowerAMP V12.0
#
DISCID=5610b718
DTITLE=Various Artist - Cocaine Blues
DYEAR=1933
DGENRE=Blues
TTITLE0=Cab Calloway And His Cotton Club Orchestra - Kickin' The Gong Around
TTITLE1=Dick Justice - Cocaine
TTITLE2=Champion Jack Dupree - Junker Blues
TTITLE3=Chick Webb and His Orchestra - Wacky Dust
TTITLE4=Mills Blue Rhythm Band - Kokey Joe
TTITLE5=Memphis Jug Band - Cocaine Habit Blues
TTITLE6=The Spirits Of Rhythm - Junk Man
TTITLE7=Charley Jordan - Just A Spoonful
TTITLE8=Slim and Slam - Chinatown, My Chinatown
TTITLE9=Cab Calloway And His Cotton Club Orchestra - Minnie The Moocher (Rare 1933 Alternate Take)
TTITLE10=The Ink Spots - That Cat Is High
TTITLE11=Josie Miles - Pipe Dream Blues
TTITLE12=Victoria Spivey - Dope Head Blues
TTITLE13=Carl Martin - That New Kind Of Stuff
TTITLE14=Clarence Williams and His Orchestra - Jerry The Junker
TTITLE15=Louis Armstrong and His Orchestra - Kickin' The Gong Around
TTITLE16=Leadbelly - Take A Whiff On Me
TTITLE17=Woody Guthrie - Cocaine Blues
TTITLE18=Mills Blue Rhythm Band - Minnie The Moocher's Wedding Day
TTITLE19=Slim And Slam - Tuttie Frutti
TTITLE20=Cab Calloway - The Ghost Of Smokey Joe
TTITLE21=George van Dusen - The Yodelling Chinaman
TTITLE22=Lucille Bogan (Bessie Jackson) - Baking Powder Blues
TTITLE23=Harry The Hipster Gibson - Who Put The Benzedrine In Mrs. Murphy's Ovaltine
EXTD=
EXTT0=
EXTT1=
EXTT2=
EXTT3=
EXTT4=
EXTT5=
EXTT6=
EXTT7=
EXTT8=
EXTT9=
EXTT10=
EXTT11=
EXTT12=
EXTT13=
EXTT14=
EXTT15=
EXTT16=
EXTT17=
EXTT18=
EXTT19=
EXTT20=
EXTT21=
EXTT22=
EXTT23=
PLAYORDER=
